<svg width="50" height="50" viewBox="0 0 50 50" fill="none" xmlns="http://www.w3.org/2000/svg">
<path d="M0 25C0 11.1929 11.1929 0 25 0C38.8071 0 50 11.1929 50 25C50 38.8071 38.8071 50 25 50C11.1929 50 0 38.8071 0 25Z" fill="#5A7CA8"/>
<path d="M35.3057 36.6668C32.5187 36.6668 29.8021 36.0455 27.1559 34.8028C24.5097 33.56 22.1656 31.9181 20.1235 29.8768C18.0814 27.8356 16.4394 25.4915 15.1976 22.8444C13.9557 20.1974 13.3344 17.4808 13.3335 14.6946C13.3335 14.3057 13.4631 13.9816 13.7224 13.7224C13.9816 13.4631 14.3057 13.3335 14.6946 13.3335H19.9446C20.2471 13.3335 20.5171 13.4307 20.7548 13.6252C20.9924 13.8196 21.1329 14.0681 21.1761 14.3705L22.0187 18.9076C22.0619 19.21 22.0563 19.4857 22.0018 19.7346C21.9474 19.9835 21.8234 20.2047 21.6298 20.3983L18.5187 23.5742C19.4261 25.1298 20.5603 26.5881 21.9215 27.9492C23.2826 29.3103 24.7841 30.4878 26.4261 31.4816L29.4724 28.4353C29.6668 28.2409 29.9209 28.0953 30.2346 27.9985C30.5483 27.9017 30.856 27.8745 31.1576 27.9168L35.6298 28.8242C35.9323 28.8891 36.1807 29.0351 36.3752 29.2624C36.5696 29.4897 36.6668 29.7541 36.6668 30.0557V35.3057C36.6668 35.6946 36.5372 36.0187 36.2779 36.2779C36.0187 36.5372 35.6946 36.6668 35.3057 36.6668Z" fill="white"/>
</svg>
