<svg width="31" height="31" viewBox="0 0 31 31" fill="none" xmlns="http://www.w3.org/2000/svg">
<path d="M29.1917 31C25.4889 31 21.8797 30.1745 18.3641 28.5234C14.8484 26.8724 11.7341 24.6909 9.021 21.979C6.30793 19.2671 4.12644 16.1527 2.47656 12.6359C0.826667 9.11917 0.00114815 5.50996 0 1.80833C0 1.29167 0.172222 0.861111 0.516667 0.516667C0.861111 0.172222 1.29167 0 1.80833 0H8.78333C9.18519 0 9.54398 0.129166 9.85972 0.3875C10.1755 0.645833 10.362 0.975926 10.4194 1.37778L11.5389 7.40556C11.5963 7.80741 11.5888 8.17367 11.5165 8.50433C11.4442 8.835 11.2794 9.12893 11.0222 9.38611L6.88889 13.6056C8.09444 15.6722 9.60139 17.6097 11.4097 19.4181C13.2181 21.2264 15.213 22.7907 17.3944 24.1111L21.4417 20.0639C21.7 19.8056 22.0376 19.6121 22.4543 19.4835C22.8711 19.3549 23.2799 19.3187 23.6806 19.375L29.6222 20.5806C30.0241 20.6667 30.3542 20.8607 30.6125 21.1627C30.8708 21.4646 31 21.816 31 22.2167V29.1917C31 29.7083 30.8278 30.1389 30.4833 30.4833C30.1389 30.8278 29.7083 31 29.1917 31Z" fill="white"/>
</svg>
