<svg width="11" height="20" fill="none" xmlns="http://www.w3.org/2000/svg"><path d="M5.5 20c-1.533 0-2.833-.533-3.9-1.6C.533 17.333 0 16.033 0 14.5V4c0-1.1.392-2.042 1.175-2.825C1.958.392 2.9 0 4 0s2.042.392 2.825 1.175C7.608 1.958 8 2.9 8 4v9.5c0 .7-.242 1.292-.725 1.775C6.792 15.758 6.2 16 5.5 16s-1.292-.242-1.775-.725C3.242 14.792 3 14.2 3 13.5V4h1.5v9.5c0 .283.096.521.288.713.192.192.43.288.712.287a.968.968 0 00.713-.288.964.964 0 00.287-.712V4c0-.7-.242-1.292-.725-1.775C5.292 1.742 4.7 1.5 4 1.5s-1.292.242-1.775.725C1.742 2.708 1.5 3.3 1.5 4v10.5c0 1.1.392 2.042 1.175 2.825C3.458 18.108 4.4 18.5 5.5 18.5s2.042-.392 2.825-1.175C9.108 16.542 9.5 15.6 9.5 14.5V4H11v10.5c0 1.533-.533 2.833-1.6 3.9C8.333 19.467 7.033 20 5.5 20z" fill="#8BBF9F"/></svg>