<svg width="50" height="50" fill="none" xmlns="http://www.w3.org/2000/svg"><path d="M0 25C0 11.193 11.193 0 25 0s25 11.193 25 25-11.193 25-25 25S0 38.807 0 25z" fill="#5A7CA8"/><path d="M35.306 36.667c-2.787 0-5.504-.622-8.15-1.864a24.746 24.746 0 01-11.958-11.959c-1.242-2.647-1.864-5.363-1.864-8.15a1.325 1.325 0 011.361-1.36h5.25c.302 0 .572.097.81.291.237.195.378.443.421.745l.843 4.538a2.34 2.34 0 01-.017.827c-.055.248-.179.47-.372.663l-3.111 3.176a21.523 21.523 0 003.403 4.375 23.711 23.711 0 004.504 3.533l3.046-3.047a1.81 1.81 0 01.763-.436c.313-.097.621-.124.923-.082l4.472.907c.302.065.55.211.745.438.195.228.292.492.292.794v5.25c0 .389-.13.713-.39.972-.258.26-.582.389-.971.389z" fill="#fff"/></svg>