<svg width="31" height="31" fill="none" xmlns="http://www.w3.org/2000/svg"><path d="M29.192 31c-3.703 0-7.312-.826-10.828-2.477A32.876 32.876 0 012.477 12.636C.827 9.119 0 5.51 0 1.808 0 1.292.172.861.517.517.86.172 1.292 0 1.808 0h6.975c.402 0 .761.13 1.077.388.316.258.502.588.56.99l1.119 6.028c.057.401.05.768-.022 1.098a1.77 1.77 0 01-.495.882l-4.133 4.22c1.205 2.066 2.712 4.004 4.52 5.812a31.511 31.511 0 005.985 4.693l4.048-4.047c.258-.258.596-.452 1.012-.58a2.797 2.797 0 011.227-.109l5.941 1.206c.402.086.732.28.99.582.259.302.388.653.388 1.054v6.975c0 .516-.172.947-.517 1.291-.344.345-.775.517-1.291.517z" fill="#fff"/></svg>