<svg width="45" height="28" viewBox="0 0 45 28" fill="none" xmlns="http://www.w3.org/2000/svg">
<path d="M22.5 27.9999C21.9619 27.9999 21.4399 27.8931 20.9341 27.6793C20.4283 27.4656 20.0085 27.1806 19.6749 26.8244L1.10986 7.16029C0.369954 6.37658 0 5.37912 0 4.16793C0 2.95673 0.369954 1.95928 1.10986 1.17557C1.84977 0.391855 2.79148 0 3.93498 0C5.07847 0 6.02018 0.391855 6.76009 1.17557L22.5 17.8473L38.2399 1.17557C38.9798 0.391855 39.9215 0 41.065 0C42.2085 0 43.1502 0.391855 43.8901 1.17557C44.63 1.95928 45 2.95673 45 4.16793C45 5.37912 44.63 6.37658 43.8901 7.16029L25.3251 26.8244C24.9215 27.2518 24.4843 27.5554 24.0135 27.7349C23.5426 27.9144 23.0381 28.0028 22.5 27.9999Z" fill="black" fill-opacity="0.25"/>
</svg>
